<svg version="1.1" id="Layer_1" xmlns="http://www.w3.org/2000/svg" xmlns:xlink="http://www.w3.org/1999/xlink" x="0px" y="0px"
	 width="100%" viewBox="0 0 1024 672" enable-background="new 0 0 1024 672" xml:space="preserve">
<path fill="#000000" opacity="1.000000" stroke="none" 
	d="
M73.022903,380.090027 
	C59.023106,368.563293 58.355541,355.289673 70.756561,342.602539 
	C75.394043,337.858032 81.113686,334.824341 86.906029,331.856567 
	C91.504227,329.500671 96.194267,327.243011 99.803917,323.417664 
	C103.739555,319.246826 104.122414,315.498810 99.959076,311.602173 
	C90.325378,302.585663 91.151482,292.615814 96.326805,281.990265 
	C104.128365,265.972809 116.981949,254.804382 131.750824,245.593781 
	C140.089508,240.393326 148.701309,235.632736 157.093719,230.515976 
	C164.618988,225.927902 170.348633,220.469818 170.321472,210.384232 
	C170.297195,201.371567 175.914764,194.495605 182.283600,188.624268 
	C201.174576,171.209015 223.838440,162.564697 249.208923,160.707718 
	C265.386749,159.523605 281.060089,162.359573 296.383698,167.496292 
	C301.275879,169.136230 306.279602,170.510544 311.498810,170.610474 
	C318.743195,170.749176 323.559235,167.591263 326.350922,161.014526 
	C330.549957,151.122299 337.031433,147.654236 347.772125,149.380554 
	C353.753387,150.341919 359.381805,152.409714 364.891022,154.756348 
	C382.121857,162.095718 397.787354,158.946289 412.283752,147.894592 
	C418.111237,143.451828 423.847931,138.879135 429.466522,134.175110 
	C448.909790,117.896706 471.925049,109.457336 496.184326,103.931580 
	C516.201599,99.372063 536.516174,96.737671 557.083557,97.029388 
	C583.650818,97.406204 609.474182,101.572395 633.586914,113.481346 
	C644.843323,119.040710 655.278931,126.064751 660.963928,137.474533 
	C675.560425,166.769241 701.415405,179.202698 731.317566,185.508194 
	C751.394409,189.741821 771.680359,190.328323 791.633972,184.369354 
	C801.307312,181.480484 810.041138,176.784409 817.306824,169.469833 
	C821.396851,165.352219 825.829041,161.482834 831.400879,159.287674 
	C835.424072,157.702667 839.426392,157.180969 843.530396,158.992691 
	C847.231079,160.626358 849.411133,163.249390 849.343628,167.457230 
	C849.303528,169.956345 849.381226,172.459381 849.275330,174.955109 
	C848.791504,186.361984 854.167236,194.039978 864.435425,198.385941 
	C869.334595,200.459518 874.456970,202.001541 879.457397,203.841187 
	C890.221436,207.801270 898.709717,214.462036 903.506042,225.081207 
	C907.843445,234.684143 905.792969,242.925339 897.807495,249.726242 
	C896.793762,250.589569 895.717102,251.380768 894.651489,252.181198 
	C886.610474,258.220703 885.945740,264.404602 892.676697,271.847473 
	C894.230103,273.565125 896.122253,274.978851 897.876709,276.511505 
	C899.631042,278.043915 901.540894,279.422607 903.148621,281.093750 
	C906.801636,284.890900 909.175903,289.224426 906.942871,294.623627 
	C905.348328,298.479187 901.957703,300.113739 898.044983,299.785004 
	C892.329773,299.304871 888.050110,296.368225 885.744202,290.928009 
	C884.326904,287.584259 884.601807,284.048065 884.714661,280.565094 
	C884.842163,276.626678 884.117981,272.911591 882.163025,269.514252 
	C879.514526,264.911591 876.738159,264.619659 873.110840,268.408112 
	C862.647583,279.335968 864.213562,293.919678 876.769775,302.180786 
	C880.247253,304.468781 883.837646,306.585632 887.303650,308.890198 
	C890.112183,310.757599 892.554199,313.111542 894.061890,316.132782 
	C896.041748,320.099945 896.438660,324.154297 893.033081,327.687225 
	C889.961792,330.873444 885.117737,331.458038 881.101318,328.901550 
	C878.881348,327.488525 876.996765,325.539734 874.997192,323.791077 
	C871.638428,320.853851 868.455444,320.849548 866.471436,323.983643 
	C864.230347,327.523895 866.832092,329.141174 869.409546,330.573730 
	C875.549866,333.986511 880.040405,338.957397 883.788086,344.838409 
	C893.726379,360.433807 905.372131,364.650024 923.115295,359.174408 
	C930.421631,356.919647 937.505798,353.889679 945.211792,353.103333 
	C955.024048,352.102020 964.252441,353.720764 972.005737,360.146973 
	C983.024109,369.279388 981.577332,382.346161 968.794922,388.888306 
	C960.072449,393.352600 950.555908,393.920258 940.987061,392.954742 
	C926.622864,391.505371 912.959106,387.396667 899.702332,381.735931 
	C891.441772,378.208588 883.153259,374.671448 874.215637,373.098694 
	C872.417786,372.782349 870.608154,372.305542 868.940247,373.645844 
	C868.634521,375.862122 870.578613,376.367493 871.768005,377.301666 
	C877.418579,381.739838 881.892029,387.118591 883.813354,394.078308 
	C886.372620,403.348969 889.767456,412.419342 891.257385,421.956696 
	C893.789001,438.161621 907.749451,451.160583 923.745361,449.731171 
	C927.131775,449.428589 930.342957,450.498535 933.518494,451.507477 
	C942.333923,454.308289 947.021729,460.754578 945.890503,468.436157 
	C944.843750,475.544403 938.144958,480.309753 929.104797,480.186584 
	C921.940979,480.089020 911.273315,475.616425 909.537537,466.073944 
	C908.911621,462.633087 906.428528,460.065613 903.347595,458.590637 
	C888.692871,451.574982 873.301758,447.899261 856.956909,449.070465 
	C855.260498,449.192047 852.833374,448.793396 852.592163,451.336334 
	C852.395813,453.406677 854.217957,454.450439 855.873962,455.337219 
	C857.048218,455.966003 858.280212,456.506348 859.388672,457.234924 
	C863.528564,459.956146 865.495605,464.791656 864.030884,468.883301 
	C862.767700,472.411835 860.065186,474.154572 856.373413,474.224579 
	C851.842773,474.310547 847.624268,471.145721 846.310242,466.685822 
	C845.940796,465.431946 845.739441,464.061737 845.796448,462.759583 
	C846.213318,453.233582 845.275940,452.520111 836.302307,455.280212 
	C833.611572,456.107788 830.815247,456.723938 828.021973,457.062744 
	C817.472656,458.342407 813.054016,466.240631 809.509521,474.616211 
	C806.309448,482.178040 808.708130,488.976288 814.272949,494.724243 
	C817.535217,498.093811 821.324585,500.803070 825.222229,503.397461 
	C830.931641,507.197662 836.404541,511.295227 839.784668,517.513672 
	C846.530212,529.923584 842.929016,544.698608 831.321350,552.292603 
	C818.848267,560.452820 804.064392,558.208618 795.106384,546.789246 
	C789.131348,539.172485 786.842590,530.215942 785.666260,520.847229 
	C784.568115,512.100830 783.548828,503.389404 780.035645,495.106415 
	C775.111267,483.495941 766.009949,477.090149 754.157898,475.584808 
	C732.229492,472.799683 713.035645,479.140991 697.382751,495.258820 
	C689.596802,503.276031 688.067017,513.366638 687.342102,523.784241 
	C686.922241,529.816711 685.580200,535.632507 683.531494,541.296326 
	C677.447021,558.117126 663.982300,565.162842 646.748474,560.650513 
	C633.897339,557.285645 623.416321,550.245483 614.864197,540.223755 
	C611.078979,535.788086 607.344421,531.299377 603.788147,526.679749 
	C589.779236,508.481964 568.845154,506.446289 550.316284,514.414795 
	C535.635803,520.728271 524.756836,531.635254 515.221069,544.095398 
	C509.553131,551.501648 504.127441,559.122314 498.056458,566.185547 
	C479.862152,587.353638 451.766357,588.766602 431.290924,569.819458 
	C418.922302,558.374023 407.622375,558.315063 391.316772,569.787964 
	C386.768219,572.988403 382.112854,575.756042 376.517365,576.660706 
	C368.917938,577.889465 361.535828,574.173340 358.758026,567.623108 
	C356.164429,561.507202 358.559265,554.179260 364.916046,549.731506 
	C367.764313,547.738647 370.951233,546.223206 374.018707,544.554077 
	C375.037170,543.999878 376.170898,543.661133 377.237854,543.191895 
	C383.977325,540.227844 389.739410,535.917236 390.368073,528.154175 
	C390.972290,520.692810 386.291382,515.390442 380.464966,511.270508 
	C370.168060,503.989441 358.343811,502.370422 346.195435,502.727631 
	C325.103058,503.347931 305.360657,510.203979 285.518585,516.483032 
	C269.062805,521.690491 252.358551,525.342957 234.956055,524.289124 
	C213.851929,523.011108 194.680237,516.880554 179.645767,501.161987 
	C160.120285,480.747986 163.392715,453.248199 187.040100,437.951324 
	C190.397308,435.779663 193.848389,433.753082 197.206223,431.582275 
	C201.007690,429.124634 204.534927,426.346375 206.966446,422.419220 
	C208.622925,419.743774 209.625488,416.858429 207.869995,413.962067 
	C206.042404,410.946777 202.854477,410.906586 199.818039,411.326111 
	C194.089081,412.117615 190.347076,415.740112 187.287842,420.375092 
	C181.880768,428.567230 175.692566,435.805267 165.627640,438.581879 
	C158.030273,440.677765 151.153641,439.319763 147.282181,434.469604 
	C142.338120,428.275574 143.130417,421.707947 146.456436,415.259430 
	C150.696640,407.038330 158.130188,402.719757 166.552994,399.830963 
	C170.654358,398.424286 174.810211,397.118805 178.424362,394.651062 
	C183.279922,391.335724 183.042053,387.561554 177.911804,384.694580 
	C164.905090,377.425873 140.963303,387.223877 138.402039,401.077362 
	C136.509140,411.315735 132.076431,415.036957 124.923050,415.302002 
	C120.698723,415.458496 117.316818,414.064240 115.599533,410.025604 
	C113.776917,405.739258 115.439888,402.149231 118.601913,399.258759 
	C122.243294,395.930054 127.015656,394.608765 131.380096,392.563873 
	C133.704819,391.474701 136.521210,390.855927 137.329559,387.756012 
	C135.790573,385.368866 133.791779,386.586456 131.957123,386.961243 
	C116.910973,390.035034 101.912590,390.586609 86.941017,386.416626 
	C82.069420,385.059753 77.583160,382.957184 73.022903,380.090027 
M518.316467,212.836731 
	C502.624969,204.810455 488.855347,207.130417 476.671448,219.865479 
	C467.704987,229.237549 463.950684,240.908157 462.789032,253.387543 
	C461.346344,268.886108 463.854065,283.659668 473.711212,296.348602 
	C485.978638,312.140259 505.740906,313.155396 519.640808,298.877502 
	C520.633972,297.857300 521.338806,296.308777 523.240234,296.555695 
	C524.690735,297.877960 525.078979,299.706665 525.282471,301.485199 
	C525.824646,306.223480 528.382324,307.875854 533.064148,307.705566 
	C539.383301,307.475769 545.723145,307.867401 552.054260,307.877106 
	C553.786804,307.879761 555.752014,308.508789 557.705505,306.194153 
	C549.034180,299.127258 550.677917,289.133270 550.660889,279.572693 
	C550.608459,250.245392 550.615845,220.917984 550.598816,191.590607 
	C550.591553,179.106033 550.630676,166.621155 550.550293,154.137039 
	C550.514404,148.556732 548.335571,146.460510 544.340942,148.181839 
	C535.147461,152.143387 525.710083,155.370209 516.115967,158.186096 
	C514.265503,158.729218 512.109741,159.012436 511.483154,161.383942 
	C519.990662,170.640839 520.490967,170.622604 520.680969,175.834351 
	C521.099365,187.313202 520.981262,198.812271 521.022278,210.303314 
	C521.026917,211.595306 520.934204,213.103546 518.316467,212.836731 
M581.193298,358.677734 
	C574.176880,365.010681 571.285095,373.033417 571.322083,382.339142 
	C571.378052,396.409821 579.736267,404.688385 592.224609,410.737183 
	C583.927124,415.406708 575.299133,418.976685 574.674072,428.809784 
	C573.984497,439.657532 583.519470,442.070374 591.964905,445.625092 
	C586.960510,448.663177 582.131714,449.121552 578.228149,451.741821 
	C569.330811,457.714172 569.306091,468.582458 578.303589,474.393829 
	C581.700684,476.587891 585.460266,477.979523 589.434326,478.647766 
	C603.066345,480.940094 616.656494,480.603149 630.081238,477.312439 
	C638.614868,475.220642 646.506775,471.668610 652.419373,464.832672 
	C662.672729,452.978058 660.734436,433.434845 642.425903,428.785919 
	C639.181946,427.962219 635.951172,427.428864 632.606201,427.171295 
	C621.156921,426.289764 609.596558,427.254517 598.232178,425.207764 
	C594.871399,424.602448 591.481506,423.378906 591.929260,418.927002 
	C592.309692,415.144653 596.570801,412.674591 600.944092,413.635437 
	C611.590088,415.974396 621.874146,414.618988 631.724976,410.339142 
	C643.751770,405.113861 650.842651,395.918121 651.462891,382.656921 
	C652.023560,370.668793 646.908875,361.414612 636.361206,355.330444 
	C634.973755,354.530121 633.211792,354.137970 632.299805,352.204346 
	C635.322021,350.059448 638.672729,349.901306 642.138367,350.299622 
	C651.826965,351.413147 651.852539,351.395630 652.851013,341.791443 
	C652.919861,341.128723 652.963318,340.455963 653.114929,339.810486 
	C653.723083,337.220612 652.625610,336.063660 650.062988,335.964233 
	C641.385254,335.627808 633.583862,337.755035 628.898132,345.572113 
	C626.242737,350.001984 623.245422,350.435333 618.620239,349.818970 
	C605.380249,348.054596 592.640808,349.340881 581.193298,358.677734 
M354.976135,399.500000 
	C354.969086,374.677246 354.983398,349.854431 354.939484,325.031738 
	C354.928833,319.008789 353.489929,318.074158 348.090118,320.595612 
	C340.237244,324.262512 332.235840,327.540741 324.064667,330.427582 
	C322.437897,331.002350 320.416382,331.315033 319.953369,333.526733 
	C327.320251,340.214783 329.799591,350.943024 326.330811,361.656708 
	C325.269623,361.293640 324.169647,361.001282 323.138062,360.551819 
	C306.491547,353.299347 288.210083,358.042969 277.131348,372.509399 
	C264.018341,389.632141 263.402557,418.965454 275.788147,436.493073 
	C286.869781,452.175385 306.899414,455.464722 322.497375,444.276093 
	C324.484894,442.850372 325.837372,440.567871 328.158539,439.837524 
	C329.316620,440.277161 329.431946,441.187103 329.518494,441.957092 
	C330.112854,447.245300 333.250092,447.974457 337.953857,447.502502 
	C344.565552,446.839081 351.255249,446.974060 357.908081,446.687073 
	C359.804932,446.605255 361.917114,447.191010 363.886078,444.984528 
	C356.382751,440.750916 355.589020,433.298584 355.200195,425.979523 
	C354.750031,417.506287 355.018250,408.994843 354.976135,399.500000 
M634.863037,264.346893 
	C613.673279,274.130981 616.816345,299.901428 628.392944,309.948730 
	C638.711060,318.903778 657.118896,318.855499 668.059570,309.422363 
	C669.978699,307.767639 671.296875,305.181183 674.593933,304.685364 
	C678.433777,315.184937 685.886902,320.143127 697.009705,318.837067 
	C703.875366,318.030853 709.472717,315.013580 713.786255,308.006073 
	C700.159119,307.179352 701.354370,297.585510 701.048096,288.910339 
	C700.971680,286.746887 701.050720,284.578339 701.035278,282.412323 
	C700.950073,270.416260 701.039551,258.415466 700.719177,246.425613 
	C700.362854,233.092010 693.814758,223.504852 681.513733,218.577255 
	C664.383118,211.714951 647.297974,213.056915 630.531677,220.383194 
	C628.061523,221.462570 627.079285,223.213379 627.102661,225.855957 
	C627.155762,231.853363 627.003845,237.852814 627.079407,243.849625 
	C627.100586,245.527679 626.627441,247.688980 629.864807,248.446991 
	C631.660339,245.778564 633.596741,242.929016 635.504272,240.060242 
	C639.678101,233.782883 643.992676,227.635574 651.067627,224.225906 
	C660.592529,219.635574 669.969482,223.729111 672.813293,233.681442 
	C676.077026,245.103104 673.103210,251.045593 662.026978,255.152206 
	C660.469177,255.729797 658.867249,256.201538 657.262756,256.637817 
	C649.866516,258.649017 642.535217,260.845215 634.863037,264.346893 
M403.335815,237.321426 
	C405.771423,243.431961 404.747833,249.275009 402.399261,255.213470 
	C400.055328,261.140259 398.893494,267.535583 395.717987,273.060150 
	C394.304810,272.751709 394.046021,271.932800 393.787750,271.146179 
	C389.632721,258.490417 385.476562,245.834961 381.343994,233.171829 
	C380.281952,229.917404 380.460022,226.592468 381.058258,223.288971 
	C382.097992,217.547394 381.384674,216.738144 375.692383,217.460739 
	C367.770233,218.466400 359.829956,219.357880 351.941589,220.582657 
	C349.706146,220.929733 346.816742,220.390060 345.048462,223.809738 
	C353.051727,228.958450 356.527344,237.112061 359.511505,245.712234 
	C366.386383,265.525238 373.546478,285.239105 380.501648,305.024536 
	C381.593079,308.129303 382.897400,310.210571 386.745361,310.143799 
	C390.623260,310.076477 391.256409,307.504150 392.165802,304.765045 
	C396.729340,291.019775 401.322388,277.284210 405.944794,263.558624 
	C406.601807,261.607697 407.475922,259.729858 408.235870,257.852020 
	C410.323334,258.604797 410.599640,260.026794 411.013062,261.230072 
	C415.664948,274.769318 420.296997,288.315613 424.853485,301.887207 
	C425.870667,304.916962 426.313904,307.984558 430.765198,307.925629 
	C435.252991,307.866211 435.651550,304.612885 436.547028,301.657898 
	C442.966003,280.475342 449.298492,259.266510 455.750702,238.094147 
	C457.686096,231.743317 459.393951,225.308929 463.573090,219.835526 
	C465.358032,217.497787 470.106445,215.880142 468.356384,212.673309 
	C466.705658,209.648438 462.214600,211.405472 459.014038,211.489395 
	C453.496399,211.634109 447.991821,212.275986 442.767578,212.686783 
	C442.350708,214.762833 443.064606,215.511765 443.879211,216.088959 
	C448.650269,219.469650 449.720886,224.269135 449.403961,229.741806 
	C448.828552,239.678467 445.230530,248.884537 442.561493,258.303131 
	C441.502594,262.039795 441.050354,266.091888 438.599976,269.418030 
	C436.496552,268.305084 436.417664,266.271515 435.848633,264.628174 
	C431.382019,251.729355 427.096466,238.767654 422.599670,225.879578 
	C417.861786,212.300583 420.209595,213.283020 406.322876,215.130997 
	C405.005798,215.306274 403.656311,215.226227 402.332642,215.366302 
	C399.479645,215.668137 398.143951,216.966293 398.999817,220.066528 
	C400.504395,225.516541 401.828430,231.016388 403.335815,237.321426 
M571.340332,260.499939 
	C569.994934,276.165680 575.218750,292.585602 564.967468,308.030212 
	C580.198669,309.586304 594.520935,309.890778 610.060791,310.304321 
	C608.628052,308.451294 608.263977,307.644623 607.639648,307.225037 
	C601.680786,303.220337 599.262146,297.226318 599.179504,290.498047 
	C598.917603,269.170868 599.012024,247.839371 598.964844,226.509552 
	C598.958740,223.750458 600.348816,222.607147 603.053223,222.818161 
	C607.036438,223.128967 611.022583,223.409271 615.010803,223.645721 
	C618.175232,223.833359 620.579895,223.218353 620.682068,219.190613 
	C620.779419,215.354385 618.984253,213.610031 615.398254,213.452591 
	C611.236877,213.269882 607.069641,213.212616 602.904358,213.132492 
	C600.294861,213.082306 598.171631,212.309265 598.058899,209.301285 
	C597.684814,199.322800 596.057556,189.358521 597.060791,179.369965 
	C597.917297,170.842575 603.745056,167.684647 611.682068,171.021698 
	C615.307922,172.546173 618.260681,175.006531 620.476685,178.206665 
	C623.223938,182.173904 625.727966,186.308990 628.373291,190.347809 
	C629.132935,191.507538 629.415588,193.306335 631.781799,192.938675 
	C634.256042,186.817596 634.201904,180.057343 635.772583,173.666885 
	C636.840393,169.322144 635.025085,167.212936 631.404175,165.554779 
	C618.090271,159.457825 604.661621,159.360947 591.147827,164.674988 
	C579.732117,169.164032 573.303162,177.412994 571.965271,189.803986 
	C571.425232,194.805374 571.140442,199.789154 571.409119,204.752213 
	C571.670532,209.583160 570.388977,212.053955 565.086731,211.384872 
	C562.477844,211.055664 560.428528,212.160522 560.270752,215.159760 
	C560.125366,217.923141 561.148987,220.065140 564.044434,220.857483 
	C565.005615,221.120514 566.006226,221.392792 566.989380,221.394730 
	C570.492981,221.401627 571.410645,223.259064 571.373291,226.501678 
	C571.246460,237.499756 571.335144,248.500305 571.340332,260.499939 
M691.616211,393.519440 
	C691.531494,389.191071 691.576660,384.855438 691.334717,380.535858 
	C690.853027,371.930420 695.601685,366.046234 704.058838,365.005157 
	C711.746460,364.058777 717.927124,368.767792 718.238281,377.528839 
	C718.936096,397.180664 722.894348,417.115479 715.014404,436.386353 
	C718.683228,438.046173 747.864075,437.587769 752.168396,435.538330 
	C744.920349,427.633209 745.946533,417.807861 745.702820,408.243958 
	C745.431458,397.592804 745.217896,386.935944 744.669495,376.297516 
	C744.276611,368.675812 741.527588,361.973846 735.070679,357.366058 
	C722.295898,348.249756 705.152649,350.565430 695.123535,362.636841 
	C694.018799,363.966583 693.410645,365.965668 690.745178,366.001831 
	C689.438843,362.895905 690.261536,359.532593 689.981140,356.313873 
	C689.705139,353.144806 688.116577,351.681763 685.019226,352.434906 
	C677.258667,354.321930 669.525208,356.322174 661.796997,358.338806 
	C659.166260,359.025299 658.448608,360.705658 660.435547,362.682648 
	C664.747070,366.972504 665.235168,372.380066 665.262085,377.940674 
	C665.313660,388.601898 665.347717,399.264099 665.262939,409.924896 
	C665.188538,419.285309 666.609314,428.943665 659.692993,437.069458 
	C669.231140,439.097076 694.458557,438.028687 697.567871,435.393372 
	C692.115234,430.227539 691.659241,423.443176 691.672546,416.502808 
	C691.686646,409.173157 691.638000,401.843384 691.616211,393.519440 
M331.852936,310.377350 
	C340.230225,304.679138 346.296722,297.190613 349.808350,287.620178 
	C353.651184,277.147217 353.905121,266.304932 352.225983,255.569870 
	C350.482941,244.426224 346.044922,234.300766 335.524445,228.443497 
	C322.184113,221.016281 308.666168,222.582794 295.943390,229.664215 
	C268.297394,245.051834 265.950836,281.303558 277.259003,301.593475 
	C283.475525,312.747620 293.295166,318.830719 306.325409,318.631958 
	C315.341339,318.494415 323.674713,315.729004 331.852936,310.377350 
M724.644409,291.756012 
	C724.218018,290.851654 723.884766,289.886841 723.345642,289.055634 
	C722.252258,287.369965 722.205383,284.079315 719.384155,284.754883 
	C716.795227,285.374847 717.423218,288.306854 717.479675,290.374054 
	C717.679749,297.699036 718.076599,305.018463 718.295898,312.343079 
	C718.366699,314.709381 718.854919,316.674316 721.388794,317.420746 
	C736.146423,321.768066 750.977966,325.714386 766.538452,322.223602 
	C776.446838,320.000793 784.034424,314.690674 787.052612,304.557770 
	C790.375977,293.400452 788.714783,283.072723 780.428528,274.422577 
	C776.018616,269.818939 770.692566,266.359009 765.134644,263.266663 
	C758.875488,259.784149 752.593018,256.340942 746.392761,252.756134 
	C742.881042,250.725769 739.909424,248.039093 738.151428,244.276886 
	C734.780945,237.063644 738.141479,230.625839 746.030396,229.541046 
	C752.651184,228.630585 758.553589,230.658691 763.630493,234.943863 
	C768.430237,238.995087 771.676636,244.208008 774.501160,249.747253 
	C775.333130,251.378784 775.516357,253.748138 777.992371,254.039917 
	C779.242371,253.280533 779.559204,252.092987 779.524292,250.961304 
	C779.329529,244.639847 779.041992,238.321075 778.757019,232.002686 
	C778.654724,229.734390 776.828735,229.048126 775.145569,228.329590 
	C768.069031,225.308502 760.724060,223.360748 753.107056,222.112030 
	C745.137634,220.805527 737.460266,221.398590 730.064148,224.393723 
	C722.325073,227.527786 716.930481,233.163437 715.508301,241.533142 
	C713.335266,254.321457 717.623413,264.766663 728.040283,272.668793 
	C734.584656,277.633240 741.841187,281.362457 749.047668,285.195465 
	C753.916260,287.784912 758.743896,290.481201 762.380127,294.740234 
	C766.072144,299.064636 766.703247,304.201569 764.645447,309.277954 
	C762.625793,314.259979 758.038879,315.274139 753.049316,315.387909 
	C745.878967,315.551361 740.075073,312.776733 735.310059,307.668213 
	C731.082703,303.136169 727.613647,298.046326 724.644409,291.756012 
M387.804626,358.286499 
	C382.797577,361.358673 378.295990,364.974396 374.767090,369.758545 
	C365.700684,382.049957 363.448486,396.028656 365.687897,410.613983 
	C367.952087,425.360840 374.989136,437.415863 389.429932,443.530182 
	C411.437439,452.848297 433.256287,444.117401 444.130432,421.895050 
	C444.804108,420.518341 446.515900,418.786194 444.754028,417.437469 
	C442.529053,415.734161 441.608459,418.415497 440.486938,419.552307 
	C433.213593,426.924744 424.437378,430.397064 414.216583,428.875305 
	C402.712128,427.162445 395.949982,418.764099 393.617310,404.425964 
	C392.321869,396.463531 392.381622,396.317810 400.524902,396.031525 
	C413.845093,395.563202 427.168823,395.196716 440.491058,394.786316 
	C443.025513,394.708221 445.848663,394.917145 445.646240,391.117554 
	C444.925995,377.597626 441.468903,365.367340 428.923462,357.845551 
	C415.467529,349.777832 401.930786,351.146759 387.804626,358.286499 
M486.428802,356.890656 
	C492.777893,357.233582 497.874420,360.149658 502.134399,364.668915 
	C505.007599,367.717041 507.282043,371.193237 509.080170,374.986206 
	C509.714874,376.324982 510.363983,377.989441 512.281006,377.464355 
	C513.939209,377.010162 513.691467,375.355316 513.638062,374.077393 
	C513.408691,368.592407 513.072266,363.111969 512.817688,357.627899 
	C512.727783,355.691040 511.712708,354.580811 509.950836,354.004028 
	C496.684967,349.661377 483.229858,348.020142 469.770447,352.656281 
	C459.816498,356.084930 452.894287,362.946686 451.392273,373.715088 
	C449.766327,385.372437 454.980347,393.979614 464.849762,400.010956 
	C471.418060,404.024994 478.608490,406.713593 485.564423,409.904755 
	C489.200592,411.572906 492.847595,413.269653 495.628387,416.268860 
	C499.073120,419.984222 500.188995,424.389130 498.729187,429.220612 
	C497.252441,434.107941 493.345734,436.313568 488.641296,437.024872 
	C481.035583,438.174866 474.520599,435.762177 469.116882,430.326172 
	C463.997070,425.175751 460.397797,419.022308 457.315094,412.510925 
	C456.635193,411.074677 455.905090,409.096619 453.755402,409.795502 
	C451.971710,410.375427 452.290863,412.255707 452.350433,413.699432 
	C452.672943,421.514374 453.103638,429.324890 453.427399,437.139771 
	C453.520264,439.380432 454.798340,440.404999 456.743561,440.907013 
	C471.754852,444.780945 486.891357,447.115448 501.919739,441.531708 
	C513.756470,437.133850 520.659668,428.293823 521.329285,415.547119 
	C521.917969,404.341888 516.665222,396.064026 506.700500,390.873291 
	C502.570129,388.721741 498.385498,386.673340 494.207855,384.613892 
	C488.401581,381.751587 482.050140,379.906616 477.010712,375.615875 
	C473.915680,372.980682 472.070831,369.648743 473.027649,365.468567 
	C474.007690,361.186646 476.823822,358.538086 481.154785,357.619415 
	C482.615906,357.309479 484.105103,357.132263 486.428802,356.890656 
M824.123657,260.368988 
	C824.119202,255.536880 824.132385,250.704666 824.104309,245.872696 
	C824.083862,242.354614 825.287537,240.620804 829.253235,241.394745 
	C832.995605,242.125107 836.846069,242.337265 840.659119,242.656998 
	C843.227051,242.872330 845.772034,243.033920 845.859314,239.182068 
	C845.937988,235.705536 845.227417,233.361954 841.060791,233.276962 
	C837.580688,233.205963 834.109070,232.348343 830.636475,232.366165 
	C825.853210,232.390686 823.666199,230.694153 823.911682,225.585480 
	C824.231201,218.936798 824.021729,212.257523 823.881653,205.594742 
	C823.832581,203.261688 824.652161,200.206650 821.074768,199.546539 
	C817.762085,198.935272 817.511963,201.904724 816.558899,203.880081 
	C811.039917,215.318466 803.404053,224.675980 791.380493,229.785080 
	C789.257080,230.687408 786.694214,231.281998 787.243896,234.483444 
	C787.759216,237.485184 790.502625,237.285828 792.408264,237.308853 
	C797.328552,237.368271 798.409424,239.793274 798.359314,244.269226 
	C798.168884,261.263458 798.076172,278.265350 798.374329,295.256866 
	C798.761230,317.306335 806.527771,326.648254 826.050537,329.399139 
	C836.305786,330.844177 847.695557,325.031006 852.419739,315.830597 
	C853.245483,314.222473 854.936279,312.351654 852.070679,310.585785 
	C851.424011,310.972839 850.641907,311.286011 850.054993,311.815552 
	C841.441833,319.586578 826.674866,316.850311 825.279358,301.764038 
	C824.032837,288.288513 825.274841,274.783539 824.123657,260.368988 
M772.448608,437.040436 
	C774.902405,437.489319 777.339172,438.103638 779.812927,438.359283 
	C792.630676,439.683868 805.463928,440.605865 817.379517,434.175385 
	C833.619690,425.411072 834.993286,404.686523 820.163269,393.735840 
	C814.763306,389.748444 808.741821,386.925110 802.630615,384.251190 
	C796.996582,381.786011 791.153870,379.760162 786.018494,376.240875 
	C782.123291,373.571594 779.629150,370.124969 780.927612,365.285950 
	C782.261902,360.314026 786.447021,359.028107 791.032654,358.726288 
	C802.884277,357.946259 810.313232,364.455994 816.037292,373.851501 
	C817.028625,375.478546 817.249695,377.758667 819.501404,378.455627 
	C821.619629,375.769531 821.781738,360.246246 819.543823,358.148712 
	C818.509338,357.179077 816.960327,356.699249 815.578491,356.169800 
	C810.256531,354.130707 804.662231,353.096222 799.045349,352.596771 
	C789.706299,351.766235 780.392517,351.763580 771.739807,356.348724 
	C760.172180,362.478516 756.156921,374.663635 762.065674,385.959778 
	C764.778992,391.146942 768.892822,395.028259 774.040405,397.635925 
	C780.568542,400.943054 787.253296,403.944580 793.904724,407.003479 
	C797.699463,408.748566 801.531799,410.466858 804.509277,413.458832 
	C807.645447,416.610291 808.837769,420.458038 807.754822,424.900208 
	C806.700256,429.225800 803.490356,431.264160 799.554138,431.958282 
	C793.348511,433.052521 787.293518,432.499146 781.759521,428.982574 
	C774.899658,424.623505 770.664490,418.118011 766.814697,411.232147 
	C765.765442,409.355316 765.455078,406.573120 762.368530,406.584473 
	C760.563232,408.029419 761.067383,409.980469 761.148010,411.729919 
	C761.370117,416.547668 761.690247,421.362427 762.060913,426.171478 
	C762.751770,435.135406 762.778137,435.133362 772.448608,437.040436 
M189.998703,333.538696 
	C197.986588,327.621887 203.291000,319.978912 205.672989,310.077057 
	C203.407181,309.941132 202.927139,311.406311 202.136551,312.374878 
	C197.995514,317.448181 192.677399,320.714233 186.496307,322.653778 
	C176.411392,325.818329 166.988708,322.410858 162.385147,312.984894 
	C155.103104,298.074585 155.042648,282.561279 161.869568,267.606812 
	C167.869324,254.464264 182.875458,253.826324 191.094940,265.731445 
	C193.097321,268.631714 194.455505,271.848236 195.791687,275.089111 
	C196.364151,276.477600 196.472534,278.552612 199.728485,278.093231 
	C199.728485,271.439636 199.493271,264.685944 199.809830,257.958191 
	C200.026794,253.347488 197.779251,251.842590 193.748062,251.256790 
	C187.935059,250.412064 182.203217,250.411392 176.343674,251.073547 
	C146.902695,254.400421 127.214874,279.464813 131.497284,308.782990 
	C132.716446,317.129517 135.715805,324.900909 141.904312,331.033508 
	C154.003235,343.023132 172.695068,344.155151 189.998703,333.538696 
M271.156433,243.717682 
	C271.618988,242.293411 272.116699,240.879440 272.537750,239.442993 
	C274.123383,234.033142 273.676514,233.319016 268.090881,231.909576 
	C262.477722,230.493210 257.557343,231.889145 253.197266,235.531525 
	C247.936539,239.926285 244.692566,245.671494 242.147736,251.923935 
	C241.549973,253.392639 241.699417,255.644135 238.534271,256.096497 
	C238.534271,251.185394 238.681351,246.552246 238.479019,241.934418 
	C238.357941,239.171356 237.363724,236.779068 233.784668,238.468246 
	C226.710022,241.807205 219.633789,245.147003 212.635529,248.641327 
	C210.101517,249.906586 209.295944,252.065262 211.515442,254.298065 
	C214.754807,257.556885 215.254898,261.586761 215.258820,265.821594 
	C215.271011,278.978973 215.294617,292.136475 215.253677,305.293732 
	C215.226929,313.888611 216.401993,322.720123 210.513901,330.893921 
	C223.267227,330.215332 235.466339,328.006714 248.027557,324.547180 
	C243.380920,321.307922 241.060852,317.086487 240.970917,312.101562 
	C240.712631,297.784332 240.440109,283.449646 240.912125,269.146210 
	C241.085480,263.892395 243.273758,258.626465 248.895676,256.186829 
	C254.536621,253.738983 259.254883,255.669647 263.497559,259.538696 
	C263.717072,259.738892 264.112213,259.746582 264.873474,259.982971 
	C268.013885,255.312195 268.732391,249.585358 271.156433,243.717682 
M558.814087,400.500000 
	C558.834534,386.502319 558.850403,372.504608 558.877319,358.506927 
	C558.891724,351.028564 558.195312,350.505432 551.237732,352.478058 
	C544.351013,354.430664 537.439148,356.294830 530.533142,358.178955 
	C528.958984,358.608459 527.166016,358.622040 526.218689,361.195282 
	C531.178040,364.939362 532.778381,370.572388 532.799988,376.747498 
	C532.847229,390.241425 533.177673,403.751068 532.637878,417.224030 
	C532.323181,425.076538 534.361023,433.838074 526.370605,440.207428 
	C539.735291,442.302368 552.411804,440.401794 565.546204,439.695740 
	C560.957520,434.713348 559.309265,428.994141 559.000916,422.989563 
	C558.633972,415.841888 558.846252,408.664520 558.814087,400.500000 
M594.065918,107.476326 
	C559.200439,99.734413 524.830627,101.971809 490.855194,112.149376 
	C496.103180,114.041405 500.471222,110.358383 505.335999,110.120522 
	C515.129761,109.641655 524.904114,109.630058 534.685791,111.283760 
	C540.128906,112.203979 545.127930,114.561455 550.641724,115.125076 
	C562.866577,116.374702 575.158386,116.827324 587.239319,119.645645 
	C601.188477,122.899773 614.770264,128.501068 629.567261,127.133812 
	C631.009705,127.000534 632.671326,127.809303 633.454651,125.956093 
	C634.291199,123.976929 632.956299,122.813553 631.517273,121.876045 
	C630.127319,120.970474 628.684082,120.119034 627.184387,119.413658 
	C616.773376,114.516853 606.040039,110.496635 594.065918,107.476326 
M216.945419,464.747681 
	C218.062759,461.367462 215.564117,460.411926 213.300369,459.263428 
	C211.194656,458.195099 209.788834,458.915894 208.866226,460.915375 
	C208.146408,462.475403 206.869385,462.640015 205.517670,462.111267 
	C201.509064,460.543274 197.646484,458.323547 196.981064,453.802155 
	C196.440292,450.127655 194.496002,448.313324 191.805756,446.698517 
	C179.064957,455.998779 178.609665,474.909088 190.695831,484.958984 
	C198.565475,491.502747 208.778244,488.134888 210.669815,478.189331 
	C211.596756,473.315704 213.198822,468.943909 216.945419,464.747681 
M337.597351,479.883545 
	C345.309082,478.617920 353.014984,477.315063 360.735840,476.107697 
	C363.306335,475.705719 365.866821,475.561157 366.336182,479.200592 
	C366.562866,480.958344 367.840332,481.733795 369.488617,481.845398 
	C371.348450,481.971344 373.007874,481.185211 373.354401,479.378021 
	C374.146057,475.249603 376.957886,475.693726 379.844269,476.153046 
	C384.227814,476.850555 388.612396,477.194427 394.506195,476.694824 
	C388.695343,474.417053 383.606964,474.564972 379.404388,472.652557 
	C365.717010,466.424042 352.723602,470.378998 339.580200,474.213348 
	C331.470581,476.579193 323.353302,478.931244 315.182465,481.071838 
	C302.983948,484.267609 290.519714,484.528931 278.005951,484.077942 
	C275.347687,483.982117 272.641571,483.961578 270.179230,485.229187 
	C267.798950,486.454559 265.878723,488.335754 266.555298,491.120361 
	C267.193817,493.748230 269.831085,492.754639 271.690582,492.823212 
	C276.349060,492.994995 281.118835,490.602600 285.528595,492.155945 
	C288.991119,493.375580 291.958771,493.019470 295.177643,492.334198 
	C309.360565,489.314606 322.644806,483.239655 337.597351,479.883545 
M234.505646,171.798157 
	C238.359879,171.061401 242.207840,169.682083 247.341599,171.398499 
	C239.235275,175.251999 231.022797,175.973862 224.051834,181.732132 
	C228.403809,183.615891 231.517075,182.155334 234.492462,181.133179 
	C245.334518,177.408508 256.392303,175.518204 267.856537,176.753616 
	C279.096161,177.964828 290.339142,179.164505 301.553101,180.586639 
	C308.894623,181.517670 315.815277,180.501450 322.417267,177.207016 
	C323.649139,176.592316 325.016785,176.061096 325.278442,173.585922 
	C315.391602,179.128586 305.963959,176.934052 296.688019,173.905579 
	C276.182983,167.210999 255.495789,164.621078 234.326859,170.392807 
	C229.981079,171.577682 225.655396,172.895752 221.885345,175.596115 
	C225.823044,174.389771 229.760727,173.183441 234.505646,171.798157 
M544.657349,320.153168 
	C540.362915,320.178223 536.425842,321.425140 533.054565,324.044495 
	C526.675354,329.000977 527.435059,337.522125 534.491150,341.261230 
	C540.642761,344.521027 552.037903,343.007355 557.044189,338.265442 
	C562.820618,332.794006 561.769043,325.536591 554.729980,321.921143 
	C551.816406,320.424591 548.716370,320.141663 544.657349,320.153168 
M557.025635,482.186493 
	C552.699646,482.121613 548.370544,481.923706 544.048340,482.022797 
	C537.476929,482.173370 531.026917,482.995270 525.983215,487.848511 
	C521.672852,491.996094 517.438354,496.226990 513.289734,500.536041 
	C511.553589,502.339325 510.126129,504.439728 508.558319,506.405029 
	C508.872955,506.774170 509.187622,507.143280 509.502258,507.512390 
	C524.351074,493.365631 541.497314,484.342194 562.494934,483.849518 
	C560.867371,482.115601 559.337830,482.317963 557.025635,482.186493 
M656.150696,521.419434 
	C654.866516,522.719299 653.574097,524.011169 652.300903,525.321777 
	C651.405334,526.243713 649.907166,527.090332 650.810486,528.611633 
	C651.854309,530.369446 653.494629,529.597900 654.768311,528.855164 
	C660.318787,525.618286 664.319580,521.077271 665.697510,514.666382 
	C666.995117,508.629059 668.359802,502.649719 671.687622,497.324036 
	C672.658875,495.769653 673.553162,494.167175 674.482727,492.586731 
	C670.462646,496.339294 666.990540,500.359039 662.208252,502.837067 
	C657.241577,505.410583 655.386963,509.280487 657.212036,514.592529 
	C658.000916,516.888672 657.544861,518.813599 656.150696,521.419434 
M531.469788,474.149200 
	C540.659912,472.981598 549.567993,470.185974 558.961182,470.477692 
	C558.694031,468.044373 557.582581,467.542023 556.610596,466.950317 
	C550.027100,462.942383 535.235474,465.766571 530.918762,471.906494 
	C530.635620,472.309143 530.938232,473.123566 531.469788,474.149200 
M191.210098,505.312042 
	C193.250671,506.436737 195.257965,507.627869 197.339401,508.671021 
	C200.665207,510.337860 203.380157,509.739777 205.742630,505.689819 
	C200.149460,501.971405 194.663040,498.323944 189.054092,494.595062 
	C187.073212,499.059021 186.393387,502.480560 191.210098,505.312042 
M789.073608,198.300308 
	C796.610840,196.109543 803.846252,192.098831 812.177246,194.886841 
	C813.710754,195.400055 815.602539,194.872559 816.412964,193.082336 
	C817.051575,191.671600 817.111511,190.057480 815.885132,188.908966 
	C814.471863,187.585480 812.983521,185.813705 810.718994,186.901108 
	C803.262451,190.481506 795.306152,192.994888 788.244385,197.407318 
	C787.472290,197.889755 787.422974,198.426697 789.073608,198.300308 
M956.483521,358.779388 
	C953.695190,358.129303 950.884338,357.922333 948.112061,358.742920 
	C946.627136,359.182465 945.305603,360.049103 945.337646,361.839111 
	C945.370605,363.684998 946.822632,364.441193 948.320374,364.675995 
	C951.594788,365.189270 954.897888,365.652161 958.203491,365.786316 
	C960.309326,365.871735 962.572510,365.556793 963.378601,362.887177 
	C962.067444,360.347900 959.553833,359.839264 956.483521,358.779388 
M691.247559,177.349213 
	C688.998596,176.097244 686.749634,174.845261 683.672180,173.132050 
	C691.643738,183.979462 697.756348,187.432785 707.852173,186.916672 
	C702.233765,183.670624 697.060486,180.681778 691.247559,177.349213 
M794.795044,481.867035 
	C792.334534,481.860779 790.402588,483.389923 788.268188,484.260254 
	C786.855774,484.836243 786.166260,486.420349 786.563477,488.063782 
	C786.945984,489.646179 788.336121,490.101318 789.687622,489.947571 
	C791.820374,489.704956 793.885803,491.026001 796.698547,489.944336 
	C796.149658,487.473816 795.589172,484.950806 794.795044,481.867035 
M833.431335,520.326904 
	C831.001221,515.655090 827.501892,512.308105 821.173828,510.453827 
	C825.371887,516.197693 828.843689,520.947937 832.361206,525.760620 
	C834.340637,524.009888 833.792664,522.494568 833.431335,520.326904 
M372.415588,555.126587 
	C371.839600,557.822876 372.528381,559.746826 375.625214,559.861145 
	C377.544586,559.932068 379.188934,559.130859 379.950653,557.252197 
	C380.570526,555.723328 380.075317,554.269714 378.770050,553.344116 
	C376.453430,551.701477 374.469086,552.586060 372.415588,555.126587 
M835.387268,171.718399 
	C833.372314,172.055573 831.122314,172.058426 830.399231,175.726639 
	C835.893433,174.508942 837.957825,179.029236 841.297668,181.547806 
	C840.410583,177.669983 839.998657,173.750885 835.387268,171.718399 
M154.880173,413.419342 
	C157.972641,414.276733 165.110214,410.096680 166.642090,406.337036 
	C161.386353,406.257812 157.967255,409.085358 154.880173,413.419342 
M749.232361,463.032196 
	C752.329895,463.281952 755.228577,465.252258 758.991272,464.413391 
	C752.533264,460.415588 745.505005,459.250366 741.263367,461.290771 
	C743.446594,462.866394 746.025269,462.449249 749.232361,463.032196 
M930.660461,455.287354 
	C929.407593,455.374817 927.777832,455.934692 928.807129,457.217957 
	C930.664856,459.533875 932.992554,461.927094 936.600525,459.665497 
	C935.826233,456.700409 933.598877,456.014008 930.660461,455.287354 
M840.340820,353.820160 
	C838.896851,354.453735 837.048889,354.784424 837.907288,357.382568 
	C841.023132,357.945465 843.717224,357.254150 846.201843,354.806244 
	C844.541992,352.999908 842.762329,353.400055 840.340820,353.820160 
M665.998169,538.252258 
	C667.975220,537.041443 668.445740,535.427673 666.635315,533.865234 
	C665.365723,532.769653 663.547546,533.001831 662.753418,534.497803 
	C661.422729,537.004944 662.938538,538.118591 665.998169,538.252258 
M222.470093,496.593323 
	C222.820938,498.708954 223.983109,499.908386 226.193680,499.463898 
	C227.140366,499.273529 227.317245,498.263977 226.939301,497.433258 
	C226.058243,495.496674 224.777863,494.499207 222.470093,496.593323 
z"/>
<path fill="#000000" opacity="1.000000" stroke="none" 
	d="
M714.474487,133.381851 
	C724.766113,138.295166 734.465637,137.062286 744.254639,132.852844 
	C751.113342,129.903488 758.022888,126.998665 765.626648,126.240570 
	C777.028748,125.103790 786.174683,129.096909 793.290527,137.910141 
	C796.954041,142.447678 797.961426,147.782715 797.257812,153.447815 
	C796.421448,160.182693 790.398804,164.120453 783.809265,162.214996 
	C780.618042,161.292236 777.516663,160.056412 774.383179,158.938156 
	C772.892761,158.406265 771.393127,158.173584 770.173218,159.385376 
	C768.671936,160.876755 770.092896,162.058441 770.732422,163.355927 
	C772.672852,167.293259 771.436279,170.534897 767.333191,172.100342 
	C764.982361,172.997223 762.472351,173.501205 759.970154,173.113098 
	C741.027405,170.174820 722.198853,166.823563 705.032288,157.567688 
	C701.029602,155.409485 697.400330,152.817688 694.393982,149.404739 
	C691.490295,146.108398 689.721069,142.422928 691.485718,137.988724 
	C693.350342,133.303192 697.211304,131.215897 701.992065,130.740128 
	C706.252014,130.316177 710.205811,131.716339 714.474487,133.381851 
M766.039246,139.783722 
	C769.522095,139.924896 773.005859,140.189011 776.487488,140.163010 
	C778.720703,140.146347 781.043213,139.521439 781.491150,136.921082 
	C781.969482,134.144547 779.484070,133.295898 777.588135,132.438629 
	C774.055542,130.841309 770.339905,129.860565 766.447693,131.064224 
	C764.380432,131.703506 761.162659,131.115295 760.996033,134.227859 
	C760.858459,136.797379 762.429199,138.955795 766.039246,139.783722 
z"/>
<path fill="#000000" opacity="1.000000" stroke="none" 
	d="
M356.785370,115.643822 
	C370.569672,105.787811 391.776306,109.188553 400.523376,117.463295 
	C407.202179,123.781494 406.896393,131.327286 399.570129,137.011917 
	C388.894196,145.295624 366.633514,145.889648 355.433502,138.189713 
	C346.264648,131.886185 346.625061,124.249153 356.785370,115.643822 
M375.428436,118.697739 
	C377.703094,118.068245 380.464935,118.204269 381.336731,115.129852 
	C379.196655,112.436043 376.359894,113.377960 373.848969,113.381897 
	C371.151398,113.386124 368.515900,114.055603 366.837463,116.439049 
	C366.142059,117.426636 366.975311,118.299896 367.726746,118.998436 
	C370.105804,121.210007 372.392975,119.471840 375.428436,118.697739 
z"/>
<path fill="#000000" opacity="1.000000" stroke="none" 
	d="
M594.846802,561.175354 
	C583.894775,565.182617 573.294312,565.190552 562.754089,561.262634 
	C560.287048,560.343262 557.868958,559.085327 555.713867,557.575500 
	C549.566772,553.268982 548.945129,547.905945 554.160583,542.431702 
	C559.805542,536.506775 567.215454,533.877197 575.114136,532.904053 
	C582.866821,531.948914 590.378418,532.836426 597.066528,537.540588 
	C608.250549,545.407104 607.530273,555.023193 594.846802,561.175354 
M577.728027,536.496704 
	C576.383911,537.157104 574.965820,538.274658 577.186523,539.110535 
	C580.336243,540.296082 583.737854,540.630066 586.858154,538.006348 
	C584.097595,535.651184 581.231628,536.192688 577.728027,536.496704 
z"/>
<path fill="#000000" opacity="1.000000" stroke="none" 
	d="
M865.289062,526.686401 
	C869.910522,519.264954 876.393372,517.213379 884.380493,518.418762 
	C890.388672,519.325500 895.466187,521.984070 899.730225,526.131592 
	C904.615784,530.883850 906.843445,536.627075 904.468689,543.357300 
	C901.990112,550.381592 895.928650,552.836731 889.389465,552.729736 
	C879.315063,552.564819 871.102478,548.135254 865.958862,539.061157 
	C863.789368,535.234009 863.507385,531.175598 865.289062,526.686401 
M892.482117,526.007996 
	C891.097839,525.439697 889.601562,524.647400 888.569336,526.417114 
	C887.870361,527.615601 888.694946,528.662354 889.513550,529.497986 
	C890.992554,531.007812 892.258667,532.917664 894.776123,532.766968 
	C895.685425,532.712524 896.497314,532.275452 896.576233,531.377197 
	C896.801819,528.807495 894.788513,527.677124 892.482117,526.007996 
z"/>
<path fill="#000000" opacity="1.000000" stroke="none" 
	d="
M540.295654,594.177307 
	C534.574707,591.634216 530.505615,588.211304 530.873596,581.717224 
	C531.198669,575.980591 535.596252,571.516907 542.443481,569.587830 
	C547.454407,568.176025 552.331543,568.551758 556.947449,570.960205 
	C561.155090,573.155762 564.027344,576.406738 564.289978,581.418823 
	C564.567749,586.719788 561.652466,590.229614 557.465271,592.727417 
	C552.191467,595.873413 546.505188,596.241943 540.295654,594.177307 
M548.274719,572.592651 
	C547.203125,573.146240 545.934265,574.046997 547.299072,575.058777 
	C549.117798,576.406982 551.353882,577.738708 553.612427,575.414490 
	C552.775879,572.958069 550.935669,572.571472 548.274719,572.592651 
z"/>
<path fill="#000000" opacity="1.000000" stroke="none" 
	d="
M130.320648,455.832703 
	C128.473175,462.953186 124.079628,465.965149 117.033882,465.346771 
	C111.426178,464.854584 107.031464,461.047791 106.657188,456.358185 
	C106.177979,450.353546 110.909134,445.558685 117.918655,444.945068 
	C124.841217,444.339050 129.600784,448.353516 130.320648,455.832703 
z"/>
<path fill="#000000" opacity="1.000000" stroke="none" 
	d="
M348.325928,552.133606 
	C346.285767,554.919006 343.599945,555.787109 340.781494,556.146667 
	C335.507477,556.819519 329.643890,553.001465 328.845673,548.552612 
	C328.103394,544.415527 332.958923,538.874512 338.848785,537.137207 
	C343.440369,535.782898 347.925385,538.329773 349.741089,543.294434 
	C350.859924,546.353699 350.204803,549.142517 348.325928,552.133606 
z"/>
<path fill="#000000" opacity="1.000000" stroke="none" 
	d="
M335.380310,115.347076 
	C339.342529,118.506004 340.578552,122.304047 339.058899,126.661736 
	C337.668243,130.649399 334.366058,132.761978 330.303436,133.031723 
	C325.682434,133.338547 321.912933,131.330002 319.426178,127.322357 
	C317.677063,124.503494 317.754303,121.648552 319.793884,118.968330 
	C322.621185,115.252884 330.587158,113.266708 335.380310,115.347076 
z"/>
<path fill="#000000" opacity="1.000000" stroke="none" 
	d="
M841.344971,505.819458 
	C837.564941,502.983307 836.091125,499.645630 838.230286,495.615082 
	C840.344727,491.631378 843.962097,490.052582 848.336609,491.144379 
	C852.852722,492.271454 855.445679,495.505371 855.797852,500.069733 
	C856.178467,505.002411 851.014160,508.824524 845.825684,507.663208 
	C844.389343,507.341766 843.050720,506.583588 841.344971,505.819458 
z"/>
<path fill="#000000" opacity="1.000000" stroke="none" 
	d="
M924.319702,330.239319 
	C923.807495,325.438446 930.794067,318.850159 935.778198,318.915009 
	C940.035889,318.970428 942.834778,322.856812 942.501770,328.251038 
	C942.166504,333.679474 937.515259,336.823639 931.786804,335.435547 
	C928.788208,334.708923 926.277649,333.183258 924.319702,330.239319 
z"/>
<path fill="#000000" opacity="1.000000" stroke="none" 
	d="
M896.189331,341.169739 
	C898.450928,335.961517 902.440857,333.911133 906.345215,335.764740 
	C909.528870,337.276154 910.902161,340.070618 910.703430,343.463409 
	C910.529846,346.426971 908.705139,348.362213 905.818542,348.978333 
	C902.419678,349.703796 899.552856,348.497803 897.595520,345.690186 
	C896.789185,344.533600 896.610840,342.939209 896.189331,341.169739 
z"/>
<path fill="#000000" opacity="1.000000" stroke="none" 
	d="
M906.035278,271.052429 
	C902.611084,270.464661 900.313416,268.919739 900.184265,265.643616 
	C900.093689,263.346405 901.490967,261.583923 903.761169,260.848297 
	C906.163513,260.069885 908.322754,260.574341 910.000610,262.557343 
	C912.656860,265.696716 911.322510,268.851593 906.035278,271.052429 
z"/>
<path fill="#000000" opacity="1.000000" stroke="none" 
	d="
M914.773682,435.581482 
	C911.514893,437.207214 909.246277,436.448761 908.128906,433.345367 
	C907.344543,431.167084 908.853699,429.920990 910.621643,429.115173 
	C912.128967,428.428162 913.557556,428.776306 914.708130,429.981567 
	C916.306274,431.655579 916.536621,433.445923 914.773682,435.581482 
z"/>
<path fill="#000000" opacity="1.000000" stroke="none" 
	d="
M497.710236,223.866760 
	C503.078430,217.378540 508.617401,215.958450 515.026733,219.181122 
	C519.059570,221.208862 521.283142,224.135895 521.230103,229.008652 
	C521.034607,246.964050 521.028564,264.923065 521.150635,282.879333 
	C521.184509,287.847900 519.205994,291.183380 514.755310,293.079712 
	C509.927887,295.136597 505.313477,294.891022 501.293060,291.194977 
	C496.804474,287.068634 494.762573,281.601532 493.580109,275.850769 
	C489.966248,258.275482 489.685730,240.909073 497.710236,223.866760 
z"/>
<path fill="#000000" opacity="1.000000" stroke="none" 
	d="
M598.734985,377.158203 
	C599.219116,371.204071 599.833679,365.764404 602.609802,360.844147 
	C604.634827,357.255157 607.608337,354.817017 611.775146,354.989929 
	C615.698364,355.152771 618.667908,357.527832 620.211426,361.132019 
	C625.893372,374.400177 626.010376,387.867584 621.097595,401.369812 
	C619.673157,405.284515 616.696960,407.701172 612.448853,407.833771 
	C608.062927,407.970642 604.843323,405.730316 602.808411,401.902008 
	C598.755615,394.277710 598.393188,386.008942 598.734985,377.158203 
z"/>
<path fill="#000000" opacity="1.000000" stroke="none" 
	d="
M614.936035,447.071472 
	C621.236084,447.152466 627.119568,446.934998 632.717590,448.720428 
	C641.220886,451.432526 642.991028,460.122589 636.465576,466.315002 
	C628.498108,473.875854 607.826721,475.366180 598.796753,469.030792 
	C594.242615,465.835602 591.861511,459.637054 593.239258,454.563293 
	C594.906860,448.422058 597.128784,446.802521 603.473877,446.964172 
	C607.130066,447.057312 610.789124,447.040985 614.936035,447.071472 
z"/>
<path fill="#000000" opacity="1.000000" stroke="none" 
	d="
M312.857361,437.448792 
	C306.240326,436.286469 302.307251,432.240570 300.230011,426.719696 
	C293.835754,409.725311 293.417664,392.483276 300.200104,375.557587 
	C304.411835,365.047150 315.189941,362.232147 324.019684,368.456512 
	C326.713745,370.355621 328.074432,372.734039 327.870087,376.048615 
	C326.844208,392.689117 327.608887,409.347198 327.423584,425.996338 
	C327.313873,435.855804 323.323639,439.154938 312.857361,437.448792 
z"/>
<path fill="#000000" opacity="1.000000" stroke="none" 
	d="
M649.362549,294.248596 
	C645.402039,279.908417 648.511292,272.502197 661.141785,265.319153 
	C664.852173,263.209045 668.510193,261.006744 672.202454,258.840729 
	C673.984802,260.503967 673.340027,262.443695 673.353394,264.144379 
	C673.423706,273.109436 673.376526,282.075500 673.354187,291.041168 
	C673.335999,298.337280 671.801453,300.460999 665.086609,302.561340 
	C659.611267,304.273956 653.961731,302.227081 650.782104,297.317474 
	C650.247192,296.491547 649.933594,295.522339 649.362549,294.248596 
z"/>
<path fill="#000000" opacity="1.000000" stroke="none" 
	d="
M298.458313,282.418823 
	C297.462524,270.002655 297.027466,258.050598 298.751495,246.117905 
	C299.258270,242.610229 300.368805,239.318192 302.300232,236.343124 
	C307.362671,228.545242 316.802124,228.912064 321.150330,237.154724 
	C324.569153,243.635498 325.286041,250.796234 325.713623,257.946960 
	C326.518005,271.398834 327.466370,284.889893 324.194641,298.172485 
	C321.927246,307.377472 318.223602,311.192230 312.056549,311.266754 
	C306.473114,311.334229 302.960907,307.281219 300.591339,298.168304 
	C299.286011,293.148376 298.650635,288.049713 298.458313,282.418823 
z"/>
<path fill="#000000" opacity="1.000000" stroke="none" 
	d="
M415.176544,363.951782 
	C419.313995,370.749268 420.191193,377.938354 420.329193,385.322174 
	C420.378693,387.971100 419.406311,389.294403 416.604919,389.370880 
	C410.296295,389.543060 403.988434,389.818298 397.687958,390.183868 
	C394.166656,390.388153 392.365936,389.220062 392.671844,385.392090 
	C393.204010,378.733887 393.984467,372.129486 397.259186,366.174683 
	C401.707367,358.086060 408.446716,357.180908 415.176544,363.951782 
z"/>
</svg>